Coordinates
version=1
nRows=13
nColumns=22
inDegrees=yes

Units are S.I. units (second, meters, Newtons, ...)
If the header above contains a line with 'inDegrees', this indicates whether rotational values are in degrees (yes) or radians (no).

endheader
time	pelvis_tilt	pelvis_list	pelvis_rotation	pelvis_tx	pelvis_ty	pelvis_tz	hip_flexion_r	hip_adduction_r	hip_rotation_r	knee_angle_r	ankle_angle_r	subtalar_angle_r	hip_flexion_l	hip_adduction_l	hip_rotation_l	knee_angle_l	ankle_angle_l	subtalar_angle_l	lumbar_extension	lumbar_bending	lumbar_rotation
      0.01000000	      6.36167862	     -2.17323641	      1.77831942	     -0.64143433	      0.95611620	      0.69127527	     -5.20944420	      2.71640004	    -13.48448975	    -12.18704226	     10.86096134	      0.98179060	     -4.12556873	     -1.54381976	     -8.64834481	    -14.02067146	     19.57657641	     -8.31480418	    -13.28902667	      3.18039024	    -10.20283905
      0.02000000	      6.36008645	     -2.15056448	      1.78967083	     -0.64137085	      0.95610188	      0.69131833	     -5.22829600	      2.70151972	    -13.48271845	    -12.15760641	     10.87121082	      0.98276423	     -4.12290768	     -1.52551047	     -8.64577915	    -14.02888111	     19.58687797	     -8.31109548	    -13.28156453	      3.14939486	    -10.23288205
      0.03000000	      6.35951837	     -2.14969819	      1.78719396	     -0.64130920	      0.95608823	      0.69137673	     -5.23209479	      2.70455234	    -13.48439560	    -12.15805781	     10.87272134	      0.98263546	     -4.12561837	     -1.52875337	     -8.64276821	    -14.03137826	     19.58740825	     -8.31063820	    -13.27710908	      3.14605864	    -10.23507246
      0.04000000	      6.35724238	     -2.14747154	      1.78678683	     -0.64125979	      0.95606892	      0.69141795	     -5.23328661	      2.70544677	    -13.48467557	    -12.15830091	     10.87293117	      0.98260577	     -4.12609540	     -1.52965943	     -8.64241760	    -14.03177164	     19.58757425	     -8.31057006	    -13.27738749	      3.14645530	    -10.23529835
      0.05000000	      6.35506393	     -2.14763598	      1.77767680	     -0.64117309	      0.95604883	      0.69149562	     -5.23843437	      2.71003831	    -13.48831239	    -12.15405601	     10.87651123	      0.98203351	     -4.12906986	     -1.53427285	     -8.63864257	    -14.03654306	     19.59086247	     -8.30938615	    -13.26893214	      3.14172948	    -10.23997997
      0.06000000	      6.33990770	     -2.15064075	      1.78416583	     -0.64106972	      0.95600214	      0.69152885	     -5.24572972	      2.72121429	    -13.49497358	    -12.11987963	     10.90868168	      0.97413855	     -4.11678023	     -1.54216873	     -8.63651169	    -14.03943127	     19.62762366	     -8.29817239	    -13.24457527	      3.15044883	    -10.26089299
      0.07000000	      6.33717018	     -2.15043856	      1.77261138	     -0.64099533	      0.95597558	      0.69159302	     -5.24525805	      2.72350580	    -13.49483250	    -12.12327595	     10.91056267	      0.97270918	     -4.11760796	     -1.54475477	     -8.63325445	    -14.04567661	     19.63020407	     -8.29695456	    -13.24363443	      3.15151747	    -10.26507216
      0.08000000	      6.29665312	     -2.16188216	      1.75205250	     -0.64095412	      0.95586921	      0.69166882	     -5.18315983	      2.73478065	    -13.46466035	    -12.16164373	     10.97600848	      0.92600077	     -4.05684592	     -1.56293562	     -8.66216652	    -14.08973642	     19.70283798	     -8.27239266	    -13.20429746	      3.16842506	    -10.25819343
      0.09000000	      6.29338875	     -2.16016150	      1.73767336	     -0.64086249	      0.95583747	      0.69172807	     -5.18118507	      2.73482195	    -13.46358954	    -12.16660293	     10.97661181	      0.92398742	     -4.05951324	     -1.56260151	     -8.66092382	    -14.09498866	     19.70263942	     -8.27190848	    -13.20226774	      3.17370456	    -10.26389752
      0.10000000	      6.28232683	     -2.16216155	      1.71099900	     -0.64081660	      0.95578441	      0.69180115	     -5.13853616	      2.73308540	    -13.42745960	    -12.23010362	     11.00191783	      0.90310906	     -4.05264657	     -1.56526643	     -8.67846210	    -14.09792075	     19.71829123	     -8.26886204	    -13.20216647	      3.18912199	    -10.27685801
      0.11000000	      6.27935141	     -2.15765527	      1.69262037	     -0.64069131	      0.95574729	      0.69187411	     -5.13735029	      2.73084942	    -13.42534942	    -12.23734326	     11.00819949	      0.89932512	     -4.05617667	     -1.56207881	     -8.67783205	    -14.10804798	     19.72136062	     -8.26825619	    -13.19324401	      3.19745071	    -10.27523552
      0.12000000	      6.22621390	     -2.14636263	      1.61437669	     -0.64064523	      0.95560499	      0.69204520	     -5.01717523	      2.70466490	    -13.34914947	    -12.35974599	     11.16410954	      0.79932725	     -3.99701335	     -1.55182555	     -8.77488498	    -14.13693280	     19.79187401	     -8.26479494	    -13.14690263	      3.18897845	    -10.19101155
      0.13000000	      6.22496026	     -2.14439948	      1.59427688	     -0.64055931	      0.95556120	      0.69213715	     -4.98631884	      2.70289905	    -13.31871284	    -12.42554517	     11.18335760	      0.76800448	     -3.99586911	     -1.55342531	     -8.78127703	    -14.15421225	     19.79796844	     -8.26351805	    -13.15240106	      3.21057440	    -10.20754330
